<svg xmlns="http://www.w3.org/2000/svg" xml:space="preserve" viewBox="5 5.24 58.31 89.52"><g class="layer"><path d="M47.88 27.53a.8.8 0 0 1-.37-.08c-.46-.2-.66-.73-.46-1.18l8.33-18.61c.1-.24.08-.33.08-.33-.08-.14-.65-.31-1.16-.29H14.52L9.01 9.26l12.86 16.82a.9.9 0 0 1-1.43 1.1L6.87 9.41c-.18-.22-.23-.51-.16-.78s.27-.5.53-.6l6.77-2.72a.8.8 0 0 1 .34-.07h39.93c.3-.01 1.94.01 2.66 1.07.27.4.51 1.09.09 2.07L48.7 27a.9.9 0 0 1-.82.53zM54.64 94.76H14.48c-3.57 0-6.09-1.16-7.47-3.43-3.65-5.99 2.26-17.58 2.51-18.07l10.24-21.3 1.62.78-10.25 21.32c-.07.14-5.71 11.21-2.58 16.33 1.03 1.7 3.03 2.57 5.93 2.57h40.16c2.91 0 4.9-.86 5.94-2.57 3.13-5.13-2.52-16.19-2.57-16.3L47.74 52.74l1.63-.78 10.25 21.32c.24.47 6.15 12.06 2.5 18.05-1.39 2.27-3.9 3.43-7.48 3.43z"/><path d="M47.99 53.25H21.04c-1.99 0-3.25-.56-3.77-1.67-.89-1.92 1.04-4.45 1.54-5.06 4.01-6.28 2.23-10.57-.12-14.77-.97-1.72-1.14-3.14-.52-4.21.87-1.47 2.86-1.55 3.25-1.55H47.6c.4 0 2.39.08 3.26 1.55.62 1.07.45 2.48-.52 4.21-2.35 4.2-4.13 8.49-.12 14.77.5.61 2.43 3.14 1.54 5.06-.52 1.11-1.78 1.67-3.77 1.67zM21.44 27.79c-.38 0-1.4.12-1.72.66-.27.46-.08 1.32.54 2.43 2.42 4.32 4.62 9.52.03 16.66l-.06.09c-.73.87-1.65 2.49-1.33 3.19.19.4.97.63 2.14.63h26.95c1.17 0 1.95-.23 2.14-.63.33-.7-.6-2.32-1.32-3.19-.03-.02-.05-.06-.07-.09-4.58-7.14-2.39-12.34.03-16.66.62-1.1.81-1.97.54-2.43-.32-.54-1.33-.66-1.7-.66H21.44zM19.75 21.18a.9.9 0 0 1-.84-.57L14.77 9.77a.9.9 0 0 1 .52-1.16.9.9 0 0 1 1.16.52l4.14 10.83a.9.9 0 0 1-.52 1.17.86.86 0 0 1-.32.05z"/><path d="M48.29 40.52H21.01a.9.9 0 0 1-.9-.9c0-.5.4-.9.9-.9h27.28c.5 0 .9.4.9.9s-.4.9-.9.9z"/><path d="M16.76 44.49a4.42 4.42 0 1 1 .01-8.83 4.42 4.42 0 0 1-.01 8.83zm0-7.02a2.61 2.61 0 1 0 0 5.22 2.61 2.61 0 0 0 0-5.22z"/><path d="M7.56 69.94a.89.89 0 0 1-.64-.27.89.89 0 0 1 .02-1.27c1.96-1.9 4.3-12.73 5.78-21.59a77.56 77.56 0 0 0-5.97 13.68.9.9 0 0 1-1.13.58.91.91 0 0 1-.58-1.14c3.69-11.22 8.33-17.62 8.52-17.89a.9.9 0 0 1 1.62.66c-.35 2.41-3.51 23.63-6.99 26.99a.9.9 0 0 1-.63.25z"/></g></svg>