<svg xmlns="http://www.w3.org/2000/svg" xml:space="preserve" viewBox="5 5 59.57 90.37"><g class="layer"><path d="M52.19 95.37H29.24a1.4 1.4 0 1 1 0-2.81h21.72l2.4-18.4a1.4 1.4 0 0 1 2.79.37l-2.56 19.62c-.1.7-.69 1.22-1.4 1.22zM58.73 45.35l-.19-.01a1.42 1.42 0 0 1-1.21-1.58l2.75-21.02H9.49l2.75 21.02a1.4 1.4 0 0 1-2.79.37L6.5 21.52a1.4 1.4 0 0 1 1.39-1.59h53.79a1.4 1.4 0 0 1 1.39 1.59l-2.95 22.61c-.1.7-.7 1.22-1.39 1.22z"/><path d="M30.82 95.37H17.38a1.4 1.4 0 0 1-1.39-1.22l-2.57-19.62a1.4 1.4 0 0 1 2.79-.36l2.4 18.39h12.21a1.4 1.4 0 0 1 0 2.81zM63.16 22.74H6.4a1.4 1.4 0 0 1-1.4-1.4v-4.16c0-.77.63-1.4 1.4-1.4h56.76c.78 0 1.41.63 1.41 1.4v4.16c0 .77-.63 1.4-1.41 1.4zM7.81 19.93h53.95v-1.34H7.81v1.34z"/><path d="M61.68 18.59a1.4 1.4 0 0 1-1.41-1.4v-2.66c-5.35-.4-25.14-2.02-29.99-4.17-5.04-2.24-11.29-2.55-11.35-2.55H9.29v9.38a1.4 1.4 0 1 1-2.8 0V6.4c0-.77.63-1.4 1.4-1.4h11.1c.34.01 6.91.34 12.43 2.79 4.19 1.86 23.33 3.54 30.35 4.03a1.4 1.4 0 0 1 1.31 1.4v3.96a1.4 1.4 0 0 1-1.4 1.41zM56.05 75.75H13.41a1.4 1.4 0 0 1-1.39-1.24l-3.66-30.4a1.4 1.4 0 0 1 1.39-1.57h49.91c.4 0 .79.17 1.05.47.27.3.39.7.35 1.1l-3.61 30.4a1.41 1.41 0 0 1-1.4 1.24zm-41.4-2.81h40.16l3.27-27.59H11.33l3.32 27.59z"/></g></svg>